HIERARCHY
ROOT Hips
{
	OFFSET 0.000000 1.471914 24.280096
	CHANNELS 6 Xposition Yposition Zposition Xrotation Yrotation Zrotation
	JOINT Spine
	{
		OFFSET 0.000000 0.900110 1.860670
		CHANNELS 6 Xposition Yposition Zposition Xrotation Yrotation Zrotation
		JOINT Spine1
		{
			OFFSET 0.000000 0.400320 2.270309
			CHANNELS 6 Xposition Yposition Zposition Xrotation Yrotation Zrotation
			JOINT Spine2
			{
				OFFSET 0.000000 0.200920 2.296560
				CHANNELS 6 Xposition Yposition Zposition Xrotation Yrotation Zrotation
				JOINT Spine3
				{
					OFFSET 0.000000 0.000000 2.305330
					CHANNELS 6 Xposition Yposition Zposition Xrotation Yrotation Zrotation
					JOINT Neck
					{
						OFFSET 0.000000 -0.864490 6.051487
						CHANNELS 6 Xposition Yposition Zposition Xrotation Yrotation Zrotation
						JOINT Head
						{
							OFFSET 0.000000 -0.550429 3.121674
							CHANNELS 6 Xposition Yposition Zposition Xrotation Yrotation Zrotation
							End Site
							{
								OFFSET 0.000000 0.000000 3.731750
							}
						}
					}
					JOINT RightShoulder
					{
						OFFSET -0.788280 -1.313800 4.256718
						CHANNELS 6 Xposition Yposition Zposition Xrotation Yrotation Zrotation
						JOINT RightArm
						{
							OFFSET -3.915130 0.000000 0.000000
							CHANNELS 6 Xposition Yposition Zposition Xrotation Yrotation Zrotation
							JOINT RightForeArm
							{
								OFFSET -6.914910 0.000000 0.000000
								CHANNELS 6 Xposition Yposition Zposition Xrotation Yrotation Zrotation
								JOINT RightHand
								{
									OFFSET -6.096219 0.000000 0.000000
									CHANNELS 6 Xposition Yposition Zposition Xrotation Yrotation Zrotation
									JOINT RightHandEnd
									{
										OFFSET -1.749950 0.000000 0.000000
										CHANNELS 6 Xposition Yposition Zposition Xrotation Yrotation Zrotation
										End Site
										{
											OFFSET -1.749950 0.000000 0.000000
										}
									}
									JOINT RightHandThumb1
									{
										OFFSET -0.699980 -1.166630 -0.466648
										CHANNELS 6 Xposition Yposition Zposition Xrotation Yrotation Zrotation
										End Site
										{
											OFFSET -1.690319 -0.452920 0.000000
										}
									}
								}
							}
						}
					}
					JOINT LeftShoulder
					{
						OFFSET 0.788280 -1.313800 4.256718
						CHANNELS 6 Xposition Yposition Zposition Xrotation Yrotation Zrotation
						JOINT LeftArm
						{
							OFFSET 3.915130 0.000000 0.000000
							CHANNELS 6 Xposition Yposition Zposition Xrotation Yrotation Zrotation
							JOINT LeftForeArm
							{
								OFFSET 6.914910 0.000000 0.000000
								CHANNELS 6 Xposition Yposition Zposition Xrotation Yrotation Zrotation
								JOINT LeftHand
								{
									OFFSET 6.096219 0.000000 0.000000
									CHANNELS 6 Xposition Yposition Zposition Xrotation Yrotation Zrotation
									JOINT LeftHandEnd
									{
										OFFSET 1.749950 0.000000 0.000000
										CHANNELS 6 Xposition Yposition Zposition Xrotation Yrotation Zrotation
										End Site
										{
											OFFSET 1.749950 0.000000 0.000000
										}
									}
									JOINT LeftHandThumb1
									{
										OFFSET 0.699980 -1.166630 -0.466648
										CHANNELS 6 Xposition Yposition Zposition Xrotation Yrotation Zrotation
										End Site
										{
											OFFSET 1.690319 -0.452920 0.000000
										}
									}
								}
							}
						}
					}
				}
			}
		}
	}
	JOINT RightUpLeg
	{
		OFFSET -2.338570 -0.252550 -0.551512
		CHANNELS 6 Xposition Yposition Zposition Xrotation Yrotation Zrotation
		JOINT RightLeg
		{
			OFFSET 0.000000 0.000000 -10.744959
			CHANNELS 6 Xposition Yposition Zposition Xrotation Yrotation Zrotation
			JOINT RightFoot
			{
				OFFSET 0.000000 -0.000001 -10.930849
				CHANNELS 6 Xposition Yposition Zposition Xrotation Yrotation Zrotation
				JOINT RightToeBase
				{
					OFFSET 0.000000 -4.087269 -1.487650
					CHANNELS 6 Xposition Yposition Zposition Xrotation Yrotation Zrotation
					End Site
					{
						OFFSET 0.000000 -1.891870 0.000000
					}
				}
			}
		}
	}
	JOINT LeftUpLeg
	{
		OFFSET 2.338570 -0.252550 -0.551512
		CHANNELS 6 Xposition Yposition Zposition Xrotation Yrotation Zrotation
		JOINT LeftLeg
		{
			OFFSET 0.000000 0.000000 -10.744959
			CHANNELS 6 Xposition Yposition Zposition Xrotation Yrotation Zrotation
			JOINT LeftFoot
			{
				OFFSET 0.000000 -0.000001 -10.930849
				CHANNELS 6 Xposition Yposition Zposition Xrotation Yrotation Zrotation
				JOINT LeftToeBase
				{
					OFFSET 0.000000 -4.087269 -1.487650
					CHANNELS 6 Xposition Yposition Zposition Xrotation Yrotation Zrotation
					End Site
					{
						OFFSET 0.000000 -1.891870 0.000000
					}
				}
			}
		}
	}
}
MOTION
Frames: 4
Frame Time: 0.041667
0.000006 26.621798 41.631500 -11.405993 2.935008 -13.169717 -0.000001 0.900085 1.860680 25.177853 -2.120762 -1.009142 -0.000017 0.400293 2.270309 0.000006 0.000002 0.000014 0.000011 0.200878 2.296539 -0.000001 -0.000002 0.000006 0.000025 0.000018 2.305345 0.000018 0.000002 -1.486744 -0.000024 -0.864436 6.051390 9.238451 -3.337636 172.552066 0.000045 -0.550399 3.121662 -0.000007 -0.000001 -0.000008 -0.788278 -1.313704 4.256845 -130.821468 53.102340 -50.997570 -3.915143 -0.000036 -0.000023 0.000002 -0.000010 0.000001 -6.914859 -0.000015 0.000041 0.000009 0.000015 -29.112558 -6.096174 -0.000001 0.000034 -0.000062 -0.000061 -0.000025 -1.749893 -0.000004 0.000031 0.000003 0.000000 0.000003 -0.699964 -1.166620 -0.466653 -0.000023 -0.000009 -0.000038 0.788253 -1.313771 4.256782 -115.568262 -43.051512 61.782258 3.915256 -0.000014 -0.000027 0.000001 0.000004 -0.000000 6.914937 -0.000068 0.000009 -0.000000 -0.000004 20.130924 6.096275 0.000163 -0.000030 -0.000038 0.000033 0.000014 1.750003 0.000017 0.000060 -0.000011 -0.000005 -0.000003 0.700006 -1.166571 -0.466638 0.000044 -0.000007 -0.000042 -2.338590 -0.252539 -0.551450 20.467186 -0.448982 -0.823221 0.000018 -0.000009 -10.744942 8.768219 -0.003536 -0.403879 -0.000028 0.000071 -10.930843 0.000079 -0.000000 0.000001 -0.000034 -4.087240 -1.487613 0.000007 0.000002 -0.000002 2.338594 -0.252535 -0.551500 19.671069 1.522287 -0.800875 -0.000026 -0.000007 -10.744938 10.587300 1.754407 -0.132986 0.000008 -0.000013 -10.930862 0.000010 0.000002 -0.000000 -0.000057 -4.087208 -1.487654 0.000002 -0.000001 -0.000004 
0.000007 26.621792 41.631493 -11.453905 3.192372 -13.115028 -0.000001 0.900089 1.860676 25.282319 -2.534008 -0.931726 -0.000016 0.400296 2.270309 0.000006 0.000001 0.000010 0.000011 0.200888 2.296541 -0.000004 -0.000002 0.000004 0.000024 0.000023 2.305346 0.000014 -0.000000 -1.233808 -0.000024 -0.864437 6.051379 9.103385 -2.998986 172.235528 0.000045 -0.550409 3.121662 -0.000008 -0.000001 -0.000008 -0.788278 -1.313706 4.256839 -130.435248 52.223036 -51.496071 -3.915145 -0.000042 -0.000023 0.000006 -0.000008 0.000002 -6.914851 -0.000015 0.000037 0.000012 0.000013 -29.058504 -6.096183 -0.000004 0.000025 -0.000058 -0.000057 -0.000026 -1.749898 -0.000002 0.000031 -0.000005 -0.000001 0.000004 -0.699971 -1.166617 -0.466653 -0.000028 -0.000011 -0.000037 0.788254 -1.313772 4.256778 -114.412922 -41.681062 62.856619 3.915250 -0.000017 -0.000031 -0.000000 0.000003 -0.000002 6.914931 -0.000074 0.000016 0.000005 -0.000002 20.421776 6.096270 0.000163 -0.000030 -0.000038 0.000034 0.000014 1.750001 0.000015 0.000055 -0.000009 -0.000004 -0.000002 0.700002 -1.166573 -0.466638 0.000046 -0.000008 -0.000039 -2.338589 -0.252537 -0.551453 20.402166 -0.549924 -0.754308 0.000016 -0.000012 -10.744934 9.310163 -0.317302 -0.416311 -0.000027 0.000074 -10.930840 0.000079 -0.000001 0.000001 -0.000033 -4.087245 -1.487616 0.000009 0.000002 -0.000001 2.338595 -0.252535 -0.551500 19.510381 1.236676 -0.730801 -0.000027 -0.000011 -10.744928 11.233020 1.841743 -0.162002 0.000007 -0.000010 -10.930863 0.000012 0.000001 0.000000 -0.000058 -4.087202 -1.487652 -0.000003 -0.000000 -0.000006 
0.000009 26.621786 41.631489 -11.320015 3.078814 -13.031867 -0.000001 0.900086 1.860666 25.279087 -2.560583 -0.985299 -0.000018 0.400297 2.270305 0.000006 0.000000 0.000012 0.000011 0.200888 2.296541 -0.000001 -0.000001 0.000005 0.000026 0.000020 2.305353 0.000013 0.000002 -0.986392 -0.000024 -0.864440 6.051380 8.868170 -2.929609 172.384549 0.000046 -0.550404 3.121662 -0.000005 -0.000000 -0.000008 -0.788276 -1.313711 4.256834 -129.949772 52.265608 -52.164467 -3.915143 -0.000038 -0.000023 0.000003 -0.000008 0.000003 -6.914848 -0.000012 0.000038 0.000006 0.000019 -28.614244 -6.096180 -0.000003 0.000032 -0.000060 -0.000061 -0.000025 -1.749899 -0.000004 0.000038 -0.000004 0.000000 0.000004 -0.699965 -1.166618 -0.466645 -0.000026 -0.000009 -0.000037 0.788255 -1.313775 4.256775 -113.755175 -40.607814 63.329070 3.915247 -0.000016 -0.000031 0.000000 0.000005 -0.000002 6.914939 -0.000073 0.000012 0.000003 -0.000002 20.707114 6.096275 0.000162 -0.000033 -0.000035 0.000034 0.000015 1.750008 0.000015 0.000060 -0.000007 -0.000005 0.000001 0.700002 -1.166575 -0.466637 0.000047 -0.000008 -0.000039 -2.338590 -0.252537 -0.551456 20.118836 -0.334178 -0.787260 0.000016 -0.000012 -10.744936 9.475937 -0.557271 -0.408116 -0.000028 0.000075 -10.930842 0.000079 0.000001 0.000002 -0.000034 -4.087235 -1.487614 0.000001 0.000001 -0.000001 2.338594 -0.252534 -0.551506 19.297070 1.316307 -0.764332 -0.000027 -0.000007 -10.744935 11.319725 1.924788 -0.171279 0.000007 -0.000010 -10.930861 0.000005 0.000001 -0.000000 -0.000057 -4.087207 -1.487654 -0.000002 0.000000 -0.000005 
0.000001 26.621786 41.631489 -11.038599 3.031700 -12.953910 -0.000001 0.900088 1.860667 25.294701 -2.553126 -1.077125 -0.000017 0.400297 2.270305 0.000005 0.000001 0.000012 0.000012 0.200881 2.296549 -0.000001 -0.000001 0.000003 0.000025 0.000023 2.305342 0.000014 0.000000 -0.822045 -0.000024 -0.864441 6.051386 8.254397 -2.874219 172.074855 0.000046 -0.550399 3.121666 -0.000006 -0.000001 -0.000012 -0.788275 -1.313713 4.256842 -129.809398 52.644410 -52.376346 -3.915143 -0.000036 -0.000024 0.000001 -0.000008 0.000005 -6.914849 -0.000011 0.000030 0.000008 0.000016 -28.997073 -6.096169 -0.000003 0.000032 -0.000060 -0.000061 -0.000026 -1.749895 -0.000002 0.000031 -0.000004 -0.000000 0.000003 -0.699965 -1.166618 -0.466653 -0.000028 -0.000009 -0.000037 0.788254 -1.313781 4.256783 -113.603374 -41.263420 63.689827 3.915248 -0.000014 -0.000031 0.000001 0.000004 -0.000000 6.914936 -0.000070 0.000008 0.000005 -0.000002 20.524430 6.096266 0.000163 -0.000037 -0.000037 0.000038 0.000015 1.750004 0.000018 0.000062 -0.000010 -0.000003 0.000000 0.700003 -1.166570 -0.466638 0.000046 -0.000006 -0.000038 -2.338590 -0.252537 -0.551456 19.814725 -0.356157 -0.848027 0.000017 -0.000013 -10.744942 9.415968 -0.482195 -0.442625 -0.000027 0.000073 -10.930841 0.000080 0.000000 0.000002 -0.000033 -4.087236 -1.487616 0.000006 0.000001 -0.000002 2.338594 -0.252537 -0.551506 19.042142 1.223478 -0.823903 -0.000026 -0.000010 -10.744931 11.230761 1.941583 -0.227732 0.000008 -0.000013 -10.930866 0.000012 0.000003 0.000001 -0.000058 -4.087202 -1.487652 -0.000001 -0.000000 -0.000005 
